# Alias OBJ Model File
# Exported from SketchUp, (c) 2000-2012 Trimble Navigation Limited
# File units = inches

mtllib cube.mtl

g Mesh1 Model

usemtl FrontColor
v 1.58948 8.9045 7.92396
vt -5.58959 7.32969
vn 0.798335 0.229187 0.556897
v 7.27143 4.59344 1.55282
vt 2.8866 2.90074
v 4.41299 15.3278 1.23286
vt 1.51363 13.9286
f 1/1/1 2/2/1 3/3/1

v 2.92722 8.89291 9.77405
vt -9.66801 6.98644
vn 0.375467 0.887867 -0.265928
vt -5.4699 -2.35819
vt -7.38505 7.01163
f 4/4/2 2/5/2 1/6/2

vt 1.29436 2.93208
vn 0.905485 0.212566 0.367305
vt -7.95691 7.33211
v 5.45213 0.354668 8.49085
vt -5.81872 -1.40582
f 2/7/3 4/8/3 5/9/3

vt -6.51301 7.515
vn 0.821528 0.160726 0.547046
v 1.61255 1.40932 13.9471
vt -10.7151 -0.0671719
vt -4.0455 -1.13571
f 4/10/4 6/11/4 5/12/4

vt 12.2305 -1.65683
vn -0.732142 0.425305 0.532055
vt 9.62758 6.61188
vt 7.34452 6.62468
f 6/13/5 4/14/5 1/15/5

vt 1.01472 1.93204
vn 0.0561857 0.62552 0.778182
v -0.176038 6.09855 10.3069
vt -0.91782 -1.66438
vt 0.603983 -7.67461
f 1/16/6 7/17/6 6/18/6

vt -4.15522 0.890779
vn 0.340995 0.474589 0.811473
vt -1.60441 4.07861
v -3.16064 15.4741 6.07784
vt -5.2684 11.5423
f 7/19/7 1/20/7 8/21/7

vt -4.64303 11.9468
vn 0.238033 0.418418 0.876508
vt -0.542774 4.71361
v 1.11746 14.7653 5.25437
vt -0.298658 11.1664
f 8/22/8 1/23/8 9/24/8

vt -4.87229 6.17356
vn 0.703219 0.340843 0.623946
vt 2.00665 13.006
vt -3.18868 12.4077
f 1/25/9 3/26/9 9/27/9

vt 4.56843 2.09548
vn -0.0389823 0.993493 0.107018
v -3.48176 14.7653 3.57906
vt -2.0465 -2.84322
vt 2.84833 -2.84322
f 3/28/10 10/29/10 9/30/10

v -1.78564 14.7653 -1.07728
vt -0.40106 -0.788092
vn -0.0796119 0.996404 -0.0289995
vt 4.55457 -0.788092
vt -0.351992 5.85071
f 11/31/11 10/32/11 3/33/11

vt -4.55457 5.45714
vn 0.220682 0.972028 0.0803857
vt 0.40106 5.45714
v -5.11789 15.3278 1.26892
vt -2.94394 7.85211
f 10/34/12 11/35/12 12/36/12

v -6.85687 8.9045 -5.42218
vt 3.67546 0.387047
vn -0.310673 0.724747 -0.614999
vt 5.14026 9.7095
vt 1.10808 8.89312
f 13/37/13 12/38/13 11/39/13

vt -4.08066 4.89286
vn -0.894547 0.415032 -0.165933
v -10.0388 4.59344 0.948966
vt 2.76396 0.154419
vt 2.18105 11.9529
f 13/40/14 14/41/14 12/42/14

vt -4.08125 4.8919
vn -0.894519 0.415124 -0.165856
v -10.7195 0.354668 -5.98906
vt -3.93445 -4.50594
vt 2.76321 0.153247
f 13/43/15 15/44/15 14/45/15

vt 5.51916 -2.89148
vn -0.535742 0.294508 -0.791357
vt 2.63836 6.05514
v -6.3402 4.59344 -7.37634
vt 1.115 1.54401
f 15/46/16 13/47/16 16/48/16

vt 1.73206 1.36083
vn -0.480839 0.313542 -0.818832
vt 3.16713 5.90082
v -3.48176 15.4741 -4.88855
vt 0.526937 12.8192
f 16/49/17 13/50/17 17/51/17

vt -5.95141 13.9934
vn -0.815154 0.383526 0.434086
vt -8.00882 6.87983
vt -1.79016 13.2259
f 17/52/18 13/53/18 11/54/18

v 5.7971 14.3447 -2.70254
vt 6.36565 1.8038
vn 0.085783 0.985688 0.145124
vt -0.509736 8.50308
vt -0.988999 4.29888
f 18/55/19 17/56/19 11/57/19

vt 0.399889 -4.27324
vn 0.132733 0.989785 -0.0520437
v 1.11746 14.7653 -6.63794
vt 5.77196 -1.32295
vt 5.82218 3.64826
f 18/58/20 19/59/20 17/60/20

v 8.95143 3.96719 -5.22651
vt -3.22816 0.175691
vn 0.619566 0.358197 -0.69845
vt 3.56897 11.7412
vt -2.54334 11.2907
f 20/61/21 19/62/21 18/63/21

vt 3.03481 12.1872
vn 0.563782 0.308898 -0.765984
vt -4.1111 0.833874
v 1.58948 4.59344 -10.3925
vt 4.88027 1.49233
f 19/64/22 20/65/22 21/66/22

v 9.99459 1.94561 -5.57568
vt -4.65495 -2.49595
vn 0.547308 0.408576 -0.730424
vt 4.95979 0.405067
vt -4.02951 -0.281066
f 22/67/23 21/68/23 20/69/23

v 5.14643 -3.40719 -5.22651
vt -2.66394 -0.510326
vn 0.364431 -0.385373 -0.847749
vt 2.6441 8.15999
vt -6.98009 5.29052
f 23/70/24 21/71/24 22/72/24

vt 0.116496 -2.38843
vn 0.706361 -0.134675 -0.694922
v 1.58948 -3.46906 -8.83003
vt 5.17982 -2.45088
vt 6.29365 5.68575
f 23/73/25 24/74/25 21/75/25

vt 0.0620321 -6.21093
vn 0.639988 0.426659 -0.639045
v 7.03943 -5.69359 -4.85724
vt -1.53684 -8.73898
v 1.79566 -4.63313 -9.40073
vt 5.38343 -7.56645
vt 5.12527 -6.27935
f 23/76/26 25/77/26 26/78/26 24/79/26 

v 7.27143 -6.76905 0.0540698
vt 0.947372 -9.82184
vn 0.757562 0.644217 0.105282
vt 5.77999 -8.41572
vt 5.88517 -5.42635
f 27/80/27 25/81/27 23/82/27

v 1.39643 -21.1441 0.0540698
vt -0.242752 -19.0817
vn 0.918348 -0.375325 -0.12557
vt 3.8588 -2.41266
vt -1.03866 -3.57295
f 28/83/28 25/84/28 27/85/28

vt -1.15112 -18.773
vn 0.540943 -0.42776 -0.724156
vt 4.18736 -0.506527
vt -2.7328 -1.67973
f 28/86/29 26/87/29 25/88/29

vt -1.28598 -18.9632
vn -0.314562 -0.465966 -0.826998
v -6.3402 -4.63313 -6.30612
vt 3.68406 -0.302632
vt -5.02047 -0.302632
f 28/89/30 29/90/30 26/91/30

v -7.89608 -11.9107 -5.70943
vt 9.53422 -11.4368
vn 0.400868 -0.159667 -0.902115
vt 8.3547 -4.06465
vt -1.29807 -20.7901
f 30/92/31 29/93/31 28/94/31

vt 3.66172 -4.63313
vn -0.358077 0 -0.933692
vt 5.32809 -11.9107
v -7.89608 -5.53568 -5.70943
vt 5.32809 -5.53568
f 29/95/32 30/96/32 31/97/32

vt 2.98789 -11.9107
vn -0.591642 0 -0.806201
v -12.5388 -6.76905 -2.30228
vt 8.74669 -6.76905
vt 2.98789 -5.53568
f 30/98/33 32/99/33 31/100/33

vt -3.29946 3.59628
vn -0.721529 -0.689951 0.0579936
vt -6.32369 -3.50683
vt 0.165775 -16.2626
f 32/101/34 30/102/34 28/103/34

vt -7.87725 0.83866
vn -0.697252 -0.615768 0.366975
vt 0.698231 -17.4054
v -10.0388 -6.76905 2.44772
vt -2.50952 0.83866
f 32/104/35 28/105/35 33/106/35

vt 0.365464 -17.2602
vn -0.756366 -0.630631 0.173824
v -9.80682 -5.69359 7.35902
vt 4.97557 2.64811
vt 0.137071 1.26234
f 28/107/36 34/108/36 33/109/36

vt 0.956799 -16.7144
vn -0.573006 -0.650924 0.497958
v -7.06306 -4.63313 11.9025
vt 4.3511 5.03507
vt -0.878123 3.63816
f 28/110/37 35/111/37 34/112/37

v 2.62868 -11.9107 8.21122
vt 4.58828 -4.56208
vn -0.192083 -0.635229 0.748056
vt -3.88088 4.86085
vt 1.366 -16.5174
f 36/113/38 35/114/38 28/115/38

vt -0.462276 -11.9053
vn 0.355517 -0.000627518 0.93467
v 1.07281 -4.63313 8.80791
vt -2.12864 -4.62773
vt -10.8332 -4.62773
f 36/116/39 37/117/39 35/118/39

vt -2.15224 -4.63313
vn 0.358077 0 0.933692
vt -0.485868 -11.9107
v 2.62868 -5.53568 8.21122
vt -0.485868 -5.53568
f 37/119/40 36/120/40 38/121/40

vt -2.73885 -11.9107
vn 0.591642 -3.9235e-17 0.806201
v 7.27143 -6.76905 4.80407
vt 3.01995 -6.76905
vt -2.73885 -5.53568
f 36/122/41 39/123/41 38/124/41

vt -1.06084 -2.07343
vn 0.796508 -0.456525 0.396433
vt -6.17977 -7.85242
vt 0.573811 -18.2304
f 39/125/42 36/126/42 28/127/42

vt -4.80407 -3.51502
vn 0.925675 -0.378319 5.41234e-16
vt -0.0540698 -19.0442
vt -0.0540698 -3.51502
f 39/128/43 28/129/43 27/130/43

v 8.72621 -3.31155 3.17782
vt -3.17782 0.331911
vn 0.921732 -0.387828 2.22045e-16
vt -4.80407 -3.41918
vt -0.0540698 -3.41918
f 40/131/44 39/132/44 27/133/44

vt -3.9274 1.10907
vn 0.82249 -0.0812894 0.562941
vt 0.142564 -6.0383
vt 2.30625 -2.56932
f 5/134/45 39/135/45 40/136/45

vt 0.0166968 3.22442
vn 0.516435 -0.285865 0.807202
vt -2.21095 -2.92244
vt 3.53609 -4.20952
f 5/137/46 38/138/46 39/139/46

vt -4.75344 -2.44309
vn 0.72286 -0.374073 0.580985
vt -3.2026 3.90838
vt -9.86083 5.04559
f 38/140/47 5/141/47 6/142/47

vt 11.9788 5.07293
vn -0.668181 -0.529456 0.522695
v 1.07281 -3.46906 8.31563
vt 7.21069 -0.677592
vt 8.08709 -3.11367
f 6/143/48 41/144/48 38/145/48

vt 0.934517 4.03226
vn 0.0108679 -0.756307 0.654127
vt 1.38064 11.4891
v -2.89203 0.562187 13.0425
vt -3.1083 10.1942
f 41/146/49 6/147/49 42/148/49

vt 3.00579 -0.022265
vn -0.261533 0.527641 0.808205
vt 1.26394 -6.53971
vt 5.82823 -5.54246
f 7/149/50 42/150/50 6/151/50

vt -9.43027 -0.88765
vn 0.529552 0.152523 0.834452
vt -5.67131 4.71425
v -3.81966 4.59344 12.8943
vt -10.1341 3.19132
f 42/152/51 7/153/51 43/154/51

vt -4.48953 0.930725
vn 0.369159 0.47724 0.797473
vt -5.42144 11.5996
vt -8.88299 -0.782015
f 7/155/52 8/156/52 43/157/52

v -4.00199 14.3447 5.20432
vt 2.91778 11.783
vn -0.853242 0.313008 0.417138
vt 9.90643 1.51587
vt 4.07206 12.9722
f 44/158/53 43/159/53 8/160/53

vt -0.0299835 -4.40592
vn -0.225364 0.600698 0.767055
vt -2.37265 7.79113
v -9.39736 9.09754 7.7283
vt -6.83774 1.2279
f 43/161/54 44/162/54 45/163/54

vt -1.59739 6.40839
vn -0.56528 0.748265 0.347215
vt 1.66679 -2.98303
vt 2.33999 4.92645
f 12/164/55 45/165/55 44/166/55

vt 9.52511 5.14986
vn -0.890189 0.413771 -0.190674
vt 2.31269 11.9934
vt 3.0305 0.202365
f 45/167/56 12/168/56 14/169/56

vt -0.537607 5.38629
vn -0.985941 -0.0802099 0.146581
v -8.76362 1.94561 8.07746
vt 6.70092 2.72991
vt 6.26235 9.90495
f 14/170/57 46/171/57 45/172/57

vt 5.91047 0.560639
vn -0.966067 0.132171 0.221913
vt -1.32258 3.2319
v -11.4936 -3.31155 -0.676034
vt -3.23203 -4.74305
f 46/173/58 14/174/58 47/175/58

vt -5.81269 -1.64342
vn -0.982763 0.18417 -0.0160982
vt -0.487697 -5.37344
vt 1.11326 2.66912
f 15/176/59 47/177/59 14/178/59

vt -6.49086 -2.46563
vn -0.961967 0.269318 0.0456875
vt -2.89454 -9.86266
vt -1.22053 -6.27251
f 15/179/60 32/180/60 47/181/60

vt 5.80198 3.43348
vn -0.516435 -0.285865 -0.807202
vt 3.57434 -2.71338
vt 9.32137 -4.00046
f 15/182/61 31/183/61 32/184/61

v -6.3402 -3.46906 -5.81384
vt 6.32579 -3.18164
vn -0.0024733 -0.0486018 -0.998815
vt 7.88192 -5.2507
vt 10.7047 0.646618
f 48/185/62 31/186/62 15/187/62

vt 3.64509 -8.25752
vn -0.501176 0.337048 -0.797008
vt 2.2724 -6.06247
vt 2.01035 -7.29888
f 31/188/63 48/189/63 29/190/63

vt 3.68406 -7.30396
vn -0.330626 0.367591 -0.869231
vt 3.85907 -6.05225
vt -4.62486 -6.05225
vt -5.02047 -7.30396
f 29/191/64 48/192/64 24/193/64 26/194/64 

vt -4.62486 1.81799
vn -0.284921 -0.598094 -0.749069
vt 3.85907 1.81799
v -2.37536 0.562187 -10.5407
vt -1.52721 6.84809
f 24/195/65 48/196/65 49/197/65

vt -0.709062 5.8709
vn -0.698821 -0.136091 -0.702231
vt -5.75152 1.80179
vt 0.393101 -2.26732
f 16/198/66 49/199/66 48/200/66

vt 3.30358 1.00851
vn -0.331887 0.358488 -0.872546
vt -5.18036 1.00851
vt -1.52721 -3.30976
f 16/201/67 21/202/67 49/203/67

vt 1.51633 13.0874
vn -0.339852 0.293572 -0.893485
vt -5.18036 1.70529
vt 3.30358 1.70529
f 17/204/68 21/205/68 16/206/68

vt 1.79607 12.8388
vn -0.293602 0.318997 -0.901132
vt -3.11883 12.091
vt -4.73075 1.35844
f 17/207/69 19/208/69 21/209/69

vt 0.467716 -1.74767
vn 0.224269 -0.185412 -0.956727
vt 4.71833 2.35472
vt 0.824319 6.4571
f 24/210/70 49/211/70 21/212/70

vt 5.54297 -2.16507
vn -0.125834 -0.188746 -0.973931
vt 9.86374 1.72864
vt 5.34276 6.04499
f 48/213/71 15/214/71 16/215/71

vt -5.95134 -3.78463
vn -0.883881 0.0483927 0.465201
vt -7.87725 -7.24619
vt -2.50952 -7.24619
f 47/216/72 32/217/72 33/218/72

vt 4.57341 2.86661
vn -0.935739 -0.0843117 0.342469
vt -4.58512 -2.40934
vt -1.15166 -5.87919
f 46/219/73 47/220/73 33/221/73

vt 7.18431 -6.97051
vn -0.990872 0.133663 0.017539
vt 7.9211 0.737856
vt 2.26967 -8.05571
f 34/222/74 46/223/74 33/224/74

vt 2.54821 1.12319
vn -0.861076 0.0702259 0.503603
vt 1.40139 -6.53492
vt 6.70855 -5.47184
f 46/225/75 34/226/75 35/227/75

vt 4.2288 -7.03398
vn -0.735259 0.18848 0.651053
vt 7.12149 2.36097
vt 0.237705 -0.335176
f 35/228/76 43/229/76 46/230/76

vt -3.99035 -4.37098
vn -0.240662 -0.0197135 0.970409
vt 0.332433 0.825355
vt -0.603585 4.85739
f 35/231/77 42/232/77 43/233/77

vt -11.8345 -0.461627
vn 0.408703 -0.496198 0.765996
vt -2.96801 0.879145
vt -8.6912 5.52232
f 35/234/78 41/235/78 42/236/78

vt -1.95363 -6.22344
vn 0.330626 0.367591 0.869231
vt -10.8332 -7.47514
vt -2.12864 -7.47514
f 41/237/79 35/238/79 37/239/79

vt -3.78048 -7.06764
vn 0.501176 0.337048 0.797008
vt -2.14573 -8.02628
vt -3.51843 -5.83122
f 37/240/80 38/241/80 41/242/80

vt -0.758404 2.25289
vn -0.690458 -0.0258895 0.722909
vt 6.14377 4.90161
vt -1.45786 9.40722
f 46/243/81 43/244/81 45/245/81

vt -3.69061 -1.72428
vn -0.0144305 0.969114 0.246192
vt -3.26636 -0.0186798
vt -5.03487 2.26221
f 44/246/82 10/247/82 12/248/82

vt 5.59738 8.90009
vn -0.768053 0.635185 -0.0814596
vt 6.37729 10.3623
vt 3.92632 9.44469
f 44/249/83 8/250/83 10/251/83

vt 0.889543 11.1474
vn 0.103334 0.953334 -0.283682
vt -2.84833 8.79992
vt 2.0465 8.79992
f 8/252/84 9/253/84 10/254/84

vt -5.65735 -1.68335
vn 0.89171 0.242645 0.382069
vt 0.515733 -5.46251
vt 1.43645 2.68599
f 5/255/85 40/256/85 2/257/85

vt 8.14918 0.0620355
vn 0.934775 0.228025 0.272396
vt 0.543487 2.78151
vt -0.609626 -5.33737
f 22/258/86 2/259/86 40/260/86

vt -0.0724019 0.985814
vn 0.886444 0.426276 0.180294
vt 7.45582 -1.94128
vt 6.90575 0.293514
f 2/261/87 22/262/87 20/263/87

vt 7.04663 1.87656
vn 0.943212 0.257425 0.209959
vt -0.244543 13.6334
vt 0.0642318 2.52465
f 20/264/88 3/265/88 2/266/88

vt 0.060303 13.9622
vn 0.936468 0.217774 0.274959
vt 7.53662 2.3222
vt 4.22624 12.9549
f 3/267/89 20/268/89 18/269/89

vt -5.77429 0.797825
vn 0.00202187 0.97035 -0.241697
vt 1.79459 2.53806
vt -4.42315 4.86527
f 18/270/90 11/271/90 3/272/90

vt 4.86537 5.31323
vn 0.939566 -0.336012 -0.0656587
vt -3.77841 -0.26847
vt -0.560843 -3.93941
f 22/273/91 40/274/91 27/275/91

vt -5.23381 -2.75768
vn 0.578425 -0.562434 -0.59084
vt -0.0212579 1.30823
vt -3.24137 7.78202
f 27/276/92 23/277/92 22/278/92

